<mxfile host="Electron" modified="2023-04-10T17:23:56.200Z" agent="Mozilla/5.0 (X11; Linux x86_64) AppleWebKit/537.36 (KHTML, like Gecko) draw.io/21.1.2 Chrome/106.0.5249.199 Electron/21.4.3 Safari/537.36" etag="WihjZdPGI4mKrYogVgsb" version="21.1.2" type="device">
  <diagram name="Page-1" id="MT_eSa0acJeNsID9RUIV">
    <mxGraphModel dx="574" dy="337" grid="1" gridSize="10" guides="1" tooltips="1" connect="1" arrows="1" fold="1" page="1" pageScale="1" pageWidth="850" pageHeight="1100" math="0" shadow="0">
      <root>
        <mxCell id="0" />
        <mxCell id="1" parent="0" />
        <mxCell id="NRAe5ARmB8Q0SLDfqDeR-1" value="df1" style="rounded=0;whiteSpace=wrap;html=1;" parent="1" vertex="1">
          <mxGeometry x="40" y="40" width="60" height="40" as="geometry" />
        </mxCell>
        <mxCell id="NRAe5ARmB8Q0SLDfqDeR-2" value="df2" style="rounded=0;whiteSpace=wrap;html=1;" parent="1" vertex="1">
          <mxGeometry x="40" y="140" width="60" height="40" as="geometry" />
        </mxCell>
        <mxCell id="NRAe5ARmB8Q0SLDfqDeR-3" value="" style="endArrow=classic;html=1;rounded=0;exitX=0.5;exitY=1;exitDx=0;exitDy=0;entryX=0.5;entryY=0;entryDx=0;entryDy=0;" parent="1" source="NRAe5ARmB8Q0SLDfqDeR-1" target="NRAe5ARmB8Q0SLDfqDeR-2" edge="1">
          <mxGeometry relative="1" as="geometry">
            <mxPoint x="150" y="100" as="sourcePoint" />
            <mxPoint x="250" y="100" as="targetPoint" />
          </mxGeometry>
        </mxCell>
        <mxCell id="NRAe5ARmB8Q0SLDfqDeR-4" value="View" style="edgeLabel;resizable=0;html=1;align=center;verticalAlign=middle;" parent="NRAe5ARmB8Q0SLDfqDeR-3" connectable="0" vertex="1">
          <mxGeometry relative="1" as="geometry" />
        </mxCell>
        <mxCell id="NRAe5ARmB8Q0SLDfqDeR-5" value="&lt;p style=&quot;line-height: 100%; font-size: 10px;&quot;&gt;&lt;font style=&quot;font-size: 10px;&quot;&gt;Block Reference Tracker&lt;/font&gt;&lt;/p&gt;" style="rounded=1;whiteSpace=wrap;html=1;" parent="1" vertex="1">
          <mxGeometry x="190" y="40" width="60" height="40" as="geometry" />
        </mxCell>
        <mxCell id="NRAe5ARmB8Q0SLDfqDeR-6" value="" style="endArrow=classic;html=1;rounded=0;exitX=1;exitY=0.25;exitDx=0;exitDy=0;entryX=0;entryY=0.25;entryDx=0;entryDy=0;" parent="1" source="NRAe5ARmB8Q0SLDfqDeR-1" target="NRAe5ARmB8Q0SLDfqDeR-5" edge="1">
          <mxGeometry relative="1" as="geometry">
            <mxPoint x="260" y="240" as="sourcePoint" />
            <mxPoint x="360" y="240" as="targetPoint" />
          </mxGeometry>
        </mxCell>
        <mxCell id="NRAe5ARmB8Q0SLDfqDeR-7" value="&lt;div&gt;Hard ref&lt;/div&gt;" style="edgeLabel;resizable=0;html=1;align=center;verticalAlign=middle;" parent="NRAe5ARmB8Q0SLDfqDeR-6" connectable="0" vertex="1">
          <mxGeometry relative="1" as="geometry" />
        </mxCell>
        <mxCell id="NRAe5ARmB8Q0SLDfqDeR-8" value="" style="endArrow=classic;html=1;rounded=0;exitX=0;exitY=0.75;exitDx=0;exitDy=0;entryX=1;entryY=0.75;entryDx=0;entryDy=0;dashed=1;" parent="1" source="NRAe5ARmB8Q0SLDfqDeR-5" target="NRAe5ARmB8Q0SLDfqDeR-1" edge="1">
          <mxGeometry relative="1" as="geometry">
            <mxPoint x="260" y="240" as="sourcePoint" />
            <mxPoint x="360" y="240" as="targetPoint" />
          </mxGeometry>
        </mxCell>
        <mxCell id="NRAe5ARmB8Q0SLDfqDeR-9" value="weakref" style="edgeLabel;resizable=0;html=1;align=center;verticalAlign=middle;" parent="NRAe5ARmB8Q0SLDfqDeR-8" connectable="0" vertex="1">
          <mxGeometry relative="1" as="geometry" />
        </mxCell>
        <mxCell id="NRAe5ARmB8Q0SLDfqDeR-12" value="" style="endArrow=classic;html=1;rounded=0;entryX=0;entryY=0.25;entryDx=0;entryDy=0;exitX=1;exitY=0.25;exitDx=0;exitDy=0;" parent="1" source="NRAe5ARmB8Q0SLDfqDeR-2" target="kB_T1ozximr7JqJuL3QE-1" edge="1">
          <mxGeometry relative="1" as="geometry">
            <mxPoint x="130" y="120" as="sourcePoint" />
            <mxPoint x="190" y="150" as="targetPoint" />
          </mxGeometry>
        </mxCell>
        <mxCell id="NRAe5ARmB8Q0SLDfqDeR-13" value="&lt;div&gt;Hard ref&lt;/div&gt;" style="edgeLabel;resizable=0;html=1;align=center;verticalAlign=middle;" parent="NRAe5ARmB8Q0SLDfqDeR-12" connectable="0" vertex="1">
          <mxGeometry relative="1" as="geometry" />
        </mxCell>
        <mxCell id="NRAe5ARmB8Q0SLDfqDeR-14" value="" style="endArrow=classic;html=1;rounded=0;exitX=0;exitY=0.75;exitDx=0;exitDy=0;dashed=1;entryX=1;entryY=0.75;entryDx=0;entryDy=0;" parent="1" source="kB_T1ozximr7JqJuL3QE-1" target="NRAe5ARmB8Q0SLDfqDeR-2" edge="1">
          <mxGeometry relative="1" as="geometry">
            <mxPoint x="190" y="170" as="sourcePoint" />
            <mxPoint x="140" y="220" as="targetPoint" />
          </mxGeometry>
        </mxCell>
        <mxCell id="NRAe5ARmB8Q0SLDfqDeR-15" value="weakref" style="edgeLabel;resizable=0;html=1;align=center;verticalAlign=middle;" parent="NRAe5ARmB8Q0SLDfqDeR-14" connectable="0" vertex="1">
          <mxGeometry relative="1" as="geometry" />
        </mxCell>
        <mxCell id="kB_T1ozximr7JqJuL3QE-1" value="&lt;p style=&quot;line-height: 100%; font-size: 10px;&quot;&gt;&lt;font style=&quot;font-size: 10px;&quot;&gt;Block Reference Tracker&lt;/font&gt;&lt;/p&gt;" style="rounded=1;whiteSpace=wrap;html=1;" vertex="1" parent="1">
          <mxGeometry x="190" y="140" width="60" height="40" as="geometry" />
        </mxCell>
        <mxCell id="kB_T1ozximr7JqJuL3QE-11" value="" style="shape=stencil(rVhbbhsxDDyNfwlRFPX4TtN7BIjTGE3jwElfty+3hhSL652gQP82Csd8Dynt5Ob18e5lv4vh9e10/Lr/ebh/e9zJp12Mh+fH/enwZl87ud3JzcPxtP9yOn5/vj///XK3SC5f344/ll/4dcZFkrKAYvh9Pggk4e/B57P40+H5QryQtElcSWVbnAPlOslXahHIC7U0yXOkWACgUAozIFPQbUBkirNF5nEFJi0e6gzIxMCk2KjMMZJADQRJhMpskigFoEEK5dlpsbDmbUBiH6UUqYAoJSXhGZBh4lKjMPugTAEUkkbKswZNlIBJqj1NA1BIkYZKOgNyoAB8yNwrZwAiaQIA6QYMgGINxbdDrpQbaDemOptkJ40BIFHMM0BgaZRMde44O2HgdGm++EolBj5UC+Kc6Rq6kdcBSmluIPsJASbV6vNQrZZAlBr7KFXMGq14XqqNGBRfqyvis7iB0mit824HNONOZFLrHTwAsffgFqDNJrVBPJuAeTa0wYWbJjkfCkXsdJxbdIkbDqs6HxopoEozoMo8H0KAxGSIkL2KCsq1ZRL1ADQgLIqO75fyAh1kADd1TSfiSgNEZ1KighpCVz5EalhDdiYxCY5SnBNh9Q07aAyciw5Cq0lbkasBAjKpUlo1taA8WF7Z+xBxQ2TxUYLl2vqmcNGjiFwvqvki1Yjwl2p2PZfhDDKAWx4scIx4o1J1Yfogc9UvD0scEG8Uv568c9V/AlhYVy0Hh1ZZUVmC64mNKHYaIiUQ1sqdVS6qL6FJXT3ABqUAp4t6H2wsouor0e8CVeB6kkfljOXB8gCilJNnYzMSamAqs9O2AKFdQJsn1xLgpLa1M8w9amtdBXnQsYwMQILkaquzo2/zKgMfklHfHCUzsoLEJfE8o4IvBKt+SHifEWsXB9C+HVwHjOofAIa8FFf0bfci1EBxVUumEyWOm58odv+tQAOrX9ejwKnIK6dNZ0Jk7CvjXeX1diB28rHP4esG+doufXm/Kr663ltvgIAGEnf96Qcb4uyqmhTEJnjbE6yf1eDEHRD6lXykFj4bBL/uMGx5Y/LixBHxBv/EEGBk2Acy4KWC1IujjZn9NSHAIvjHF6cPxe3j/XHr4fD0dH4bu/y/fwyzo/NDmtz+AQ==);lineShape=1;strokeColor=#FF0000;" vertex="1" parent="1">
          <mxGeometry x="53.72761758491902" y="102.72923668942951" width="39.53933507337697" height="17.172811503096547" as="geometry" />
        </mxCell>
        <mxCell id="kB_T1ozximr7JqJuL3QE-13" value="" style="shape=stencil(lVjbchoxDP0aXjWW73pO0//ITEhhSiFD6O3vK5fxstayJ8Mb7J6zliUdSfYmPH3sXt63G+8+LufT9+3v/etltwlfNt7vj7vteX/RX5vwvAlPb6fz9tv59PP4ev3//tKQ7deP06/2hT9XnlSqubG8+3t9kknK/wdfr/jD/jjHR0oy4NlR9ICgr3kkBBJAqIWcWUFNEkAI5MYVvKMM9lAquTgSIlVgUvFUDEHIh3VCLpTHPQTdNCJ4qnUkVCq8Tki1G9AJMVB0gBC6EyeCGhkBwVEaV0gMN63fC2kkRAogcDEuVtDYoxXYeikJcVonhEJpNKk5GhECFUOYQnmfoOldBoImCxKQr5RGwZXSJXifkKiMXtKEryA1vHrJjYQK48ALxYknBnFgbwUkiRjsQcMwxk0KrAGhZ+aEF+yjrvcZHgWBrZ4VH4EWXBfvhK8911fwRgmSqYAIuIU/Iwm0xxl7PCyRao/5PsMAL/ZbpUdwzZ8GXykC/CJeWvQFydLmg37fgXzQwrLAF2BPIm/yc4rICr5U688C8jnZ2iu6I+D/ZOuc6iuBfE7d2zN9ofyMvYDM8rmA74cenZleMvCnduSxArFz/dFKQlgBCCy7mr71kQ1oL+NHHOSIeREAsGFnNywBNldH3nx/ktAKvhi8rgjsZ4pjwJoAgD+9LVifCOxR/LKHZZjQbag0PUw7M1iAtQGZkuJgi2GxBO3DaETTpGY/EkL38lrjtsOHroAat5AbszprK0eyDLaup0wZeEmHSjYE38fz+4VC+8o4rUTtlGimW5TGNhYC5cRKYggR11Jvi7uOhQnEQX1iTGpjIfCSej2O2Rp0agSbzpn8mEse97PCFEa3qqIqqBcl26mRKyyole8cuyLYdE12BYGC04nAnLoKNEgLoh/VEGAF0AJtwuzg6aNNlNngHchsbRimwuAO1Q7K3tqD8NJf3/AJ5JDizWGI4UiteJPV0+FoDS/mDIs7rFv0tABV0xYYAxzxxYDYY4pOYUACzUHZ4OFNhfTP3W42oP2P3oR8itcft2uXt/3hcL21mb+31zT66HrFE57/AQ==);lineShape=1;strokeColor=#FF0000;" vertex="1" parent="1">
          <mxGeometry x="52.37364715890658" y="101.56612678908084" width="35.46389388908083" height="17.600819813732414" as="geometry" />
        </mxCell>
      </root>
    </mxGraphModel>
  </diagram>
</mxfile>
